<?xml version="1.0" standalone="no"?>
<!DOCTYPE svg PUBLIC "-//W3C//DTD SVG 1.0//EN" "http://www.w3.org/TR/2001/REC-SVG-20010904/DTD/svg10.dtd">
<svg xmlns="http://www.w3.org/2000/svg" xmlns:xlink="http://www.w3.org/1999/xlink" id="body_1" width="54" height="34">

<g transform="matrix(0.6585366 0 0 0.65384614 0 0)">
	<g transform="matrix(0.47953218 0 0 0.4814815 0 0)">
		<g transform="matrix(1 0 0 1 0 0)">
			<g transform="matrix(0.13359377 0 0 0.13359377 -0 0.32344136)">
				<g transform="matrix(0.1 0 -0 -0.1 0 806)">
                    <path d="M6736 8049C 5644 7975 4679 7579 3820 6851C 3632 6692 3344 6408 3164 6205C 3045 6072 2923 5923 2750 5702C 2454 5325 2249 5146 2016 5061C 1969 5045 1829 5008 1703 4980C 1363 4905 1222 4859 1005 4756C 776 4646 637 4548 488 4392C 243 4134 94 3779 36 3310C -1 3012 -11 2609 16 2432C 77 2019 332 1682 739 1478L739 1478L834 1430L1015 1430C 1115 1430 1199 1432 1202 1435C 1205 1438 1204 1461 1199 1485C 1177 1603 1169 1794 1179 1933C 1204 2247 1262 2463 1395 2735C 1510 2972 1637 3146 1826 3330C 2156 3650 2551 3846 3010 3917C 3168 3941 3483 3941 3635 3917C 4285 3811 4813 3461 5156 2907C 5396 2521 5508 2018 5455 1575C 5447 1509 5440 1449 5440 1443C 5440 1433 5697 1430 6690 1430C 7378 1430 7940 1431 7940 1433C 7940 1434 7933 1485 7925 1545C 7908 1673 7906 1896 7920 2025C 7985 2605 8282 3135 8743 3492C 9387 3990 10260 4079 10995 3721C 11650 3402 12094 2783 12186 2060C 12199 1953 12201 1886 12196 1735C 12192 1631 12187 1527 12183 1505L12183 1505L12177 1465L12231 1511C 12261 1536 12319 1596 12361 1643C 12687 2010 12841 2526 12790 3075C 12761 3379 12668 3651 12513 3884C 12439 3995 12291 4155 12205 4216C 12152 4253 12150 4257 12154 4293C 12170 4434 12100 4769 11974 5154C 11899 5384 11872 5449 11776 5635C 11568 6041 11259 6461 10797 6968C 10616 7167 10477 7266 10162 7424C 9451 7780 8526 7993 7440 8050C 7219 8061 6912 8061 6736 8049zM6905 7217C 7110 7159 7285 7013 7375 6826C 7442 6685 7443 6676 7447 6240C 7452 5816 7440 5520 7415 5400C 7384 5250 7312 5141 7220 5101L7220 5101L7171 5080L5608 5082L4045 5085L3988 5108C 3926 5133 3838 5206 3814 5252C 3785 5308 3778 5382 3795 5462C 3825 5605 3920 5769 4104 5994C 4706 6729 5234 7096 5841 7201C 6037 7234 6106 7238 6485 7236C 6788 7234 6855 7231 6905 7217zM9005 7116C 9184 7072 9447 6982 9548 6931C 9727 6841 9948 6669 10091 6509C 10407 6154 10639 5689 10641 5405C 10642 5308 10629 5256 10591 5203C 10552 5150 10511 5121 10438 5099C 10381 5081 10328 5080 9452 5080C 8541 5080 8526 5080 8484 5100C 8433 5125 8396 5177 8367 5262C 8346 5324 8346 5341 8342 6019C 8339 6757 8344 6907 8380 7002C 8408 7077 8461 7126 8527 7136C 8553 7140 8584 7147 8595 7151C 8606 7156 8671 7158 8740 7156C 8838 7152 8895 7144 9005 7116z" stroke="none" fill="#000000" fill-rule="nonzero" />
                    <path d="M3148 3579C 2444 3511 1843 3032 1620 2362C 1556 2169 1539 2071 1533 1850C 1524 1524 1572 1294 1705 1014C 1931 543 2373 183 2881 56C 3798 -174 4731 339 5025 1235C 5123 1531 5141 1848 5079 2154C 4899 3047 4058 3667 3148 3579zM3550 2610C 3591 2598 3663 2569 3710 2545C 3878 2457 3998 2334 4080 2165C 4139 2042 4160 1965 4167 1835C 4190 1412 3885 1032 3463 959C 3425 952 3346 949 3276 952C 3171 956 3141 962 3053 992C 2830 1068 2670 1207 2565 1415C 2500 1545 2478 1637 2477 1790C 2475 2010 2537 2177 2684 2354C 2793 2483 2996 2598 3172 2630C 3261 2645 3464 2635 3550 2610z" stroke="none" fill="#000000" fill-rule="nonzero" />
                    <path d="M9880 3580C 8932 3481 8224 2669 8263 1725C 8305 731 9137 -38 10125 3C 10508 19 10865 150 11165 384C 11273 470 11440 645 11522 760C 11897 1290 11954 1988 11670 2575C 11416 3100 10914 3473 10340 3565C 10220 3584 9991 3591 9880 3580zM10196 2629C 10472 2581 10709 2399 10825 2146C 10884 2019 10903 1918 10897 1760C 10894 1658 10887 1608 10870 1555C 10817 1389 10714 1236 10588 1135C 10510 1073 10367 1000 10275 974C 10185 949 9982 944 9887 964C 9555 1032 9292 1297 9225 1629C 9202 1739 9209 1924 9239 2024C 9331 2332 9580 2563 9890 2625C 9971 2641 10117 2643 10196 2629z" stroke="none" fill="#000000" fill-rule="nonzero" />
				</g>
			</g>
		</g>
	</g>
</g>
</svg>